<svg width="100" height="80" viewBox="0 0 100 80" fill="none" xmlns="http://www.w3.org/2000/svg">
<path fill-rule="evenodd" clip-rule="evenodd" d="M20.7703 0C15.0645 0 10.8424 4.99414 11.0314 10.4102C11.2129 15.6135 10.9771 22.3525 9.28066 27.8482C7.57812 33.3594 4.70078 36.8518 0 37.3V42.3609C4.70078 42.8102 7.57812 46.3008 9.28047 51.8127C10.9771 57.3084 11.2127 64.0475 11.0312 69.2508C10.8422 74.666 15.0643 79.6609 20.7711 79.6609H79.2373C84.9432 79.6609 89.1645 74.6668 88.9754 69.2508C88.7939 64.0475 89.0297 57.3084 90.7262 51.8127C92.4287 46.3008 95.299 42.8088 100 42.3609V37.3C95.2992 36.8508 92.4289 33.3602 90.7262 27.8482C89.0295 22.3533 88.7939 15.6135 88.9754 10.4102C89.1645 4.99492 84.9432 0 79.2373 0H20.7695H20.7703ZM67.7967 49.0365C67.7967 56.4941 62.234 61.017 53.0025 61.017H37.2881C36.8386 61.017 36.4075 60.8384 36.0896 60.5206C35.7717 60.2027 35.5932 59.7716 35.5932 59.3221V20.3391C35.5932 19.8895 35.7717 19.4584 36.0896 19.1406C36.4075 18.8227 36.8386 18.6441 37.2881 18.6441H52.9131C60.6105 18.6441 65.6623 22.8137 65.6623 29.2152C65.6623 33.7084 62.2639 37.7309 57.9344 38.4355V38.6699C63.8281 39.3164 67.7967 43.3984 67.7967 49.0365V49.0365ZM51.2891 24.017H42.3289V36.6732H49.8756C55.7096 36.6732 58.9264 34.324 58.9264 30.125C58.9258 26.1898 56.1602 24.017 51.2891 24.017ZM42.3289 41.6949V55.6424H51.6187C57.693 55.6424 60.9104 53.2051 60.9104 48.6246C60.9104 44.0441 57.6027 41.6941 51.2281 41.6941H42.3289V41.6949Z" fill="white"/>
</svg>
