<svg width="100" height="100" viewBox="0 0 100 100" fill="none" xmlns="http://www.w3.org/2000/svg">
<g clip-path="url(#clip0_905_20)">
<path d="M50 74.989C63.8071 74.989 75 63.7961 75 49.989C75 36.1819 63.8071 24.989 50 24.989C36.1929 24.989 25 36.1819 25 49.989C25 63.7961 36.1929 74.989 50 74.989Z" fill="white"/>
<path d="M50 25.0001H93.2942C88.9071 17.3988 82.596 11.0865 74.9955 6.69802C67.3951 2.30949 58.7732 -0.00061223 49.9967 1.21708e-07C41.2202 0.000612473 32.5986 2.31192 24.9988 6.7015C17.3989 11.0911 11.0887 17.4042 6.70271 25.0061L28.3498 62.5001L28.3692 62.4951C26.1671 58.6977 25.005 54.387 25.0001 49.9973C24.9951 45.6076 26.1475 41.2943 28.3411 37.492C30.5346 33.6897 33.6918 30.5329 37.4943 28.3397C41.2968 26.1466 45.6104 24.9947 50 25.0001Z" fill="url(#paint0_linear_905_20)"/>
<path d="M50 69.7916C60.9306 69.7916 69.7917 60.9306 69.7917 49.9999C69.7917 39.0693 60.9306 30.2083 50 30.2083C39.0694 30.2083 30.2083 39.0693 30.2083 49.9999C30.2083 60.9306 39.0694 69.7916 50 69.7916Z" fill="#1A73E8"/>
<path d="M71.6485 62.5059L50.0015 99.9999C58.7779 100.001 67.3999 97.6916 75.0007 93.3036C82.6014 88.9157 88.9129 82.6039 93.3006 75.003C97.6882 67.402 99.9974 58.7799 99.9958 50.0035C99.9942 41.227 97.682 32.6057 93.2917 25.0063H49.9977L49.9925 25.0257C54.3822 25.0173 58.6965 26.1662 62.5005 28.3567C66.3046 30.5473 69.4639 33.7019 71.66 37.5028C73.8561 41.3036 75.0114 45.6162 75.0094 50.0059C75.0074 54.3956 73.8481 58.7071 71.6485 62.5059Z" fill="url(#paint1_linear_905_20)"/>
<path d="M28.3512 62.5064L6.70417 25.0125C2.31484 32.6125 0.003829 41.2341 0.00350193 50.0106C0.00317485 58.787 2.31354 67.4089 6.7023 75.0092C11.0911 82.6095 17.4035 88.9204 25.0049 93.3073C32.6063 97.6942 41.2288 100.002 50.0052 99.9999L71.6523 62.506L71.6383 62.4918C69.4508 66.2976 66.2986 69.4594 62.4995 71.6585C58.7004 73.8576 54.3887 75.0162 49.999 75.0177C45.6093 75.0192 41.2969 73.8634 37.4963 71.6669C33.6957 69.4703 30.5414 66.3107 28.3512 62.5064Z" fill="url(#paint2_linear_905_20)"/>
</g>
<defs>
<linearGradient id="paint0_linear_905_20" x1="6.70271" y1="31.2501" x2="93.2942" y2="31.2501" gradientUnits="userSpaceOnUse">
<stop stop-color="#D93025"/>
<stop offset="1" stop-color="#EA4335"/>
</linearGradient>
<linearGradient id="paint1_linear_905_20" x1="43.1706" y1="99.3313" x2="86.4665" y2="24.3409" gradientUnits="userSpaceOnUse">
<stop stop-color="#FCC934"/>
<stop offset="1" stop-color="#FBBC04"/>
</linearGradient>
<linearGradient id="paint2_linear_905_20" x1="55.4127" y1="96.8781" x2="12.1169" y2="21.8875" gradientUnits="userSpaceOnUse">
<stop stop-color="#1E8E3E"/>
<stop offset="1" stop-color="#34A853"/>
</linearGradient>
<clipPath id="clip0_905_20">
<rect width="100" height="100" fill="white"/>
</clipPath>
</defs>
</svg>
