<svg width="100" height="46" viewBox="0 0 100 46" fill="none" xmlns="http://www.w3.org/2000/svg">
<path d="M79.0458 19.2945L76.9712 18.4648C67.2208 40.4039 28.4321 27.066 26.0977 33.5926C25.7087 38.0012 47.2801 34.4309 62.7016 35.1781C67.4044 35.4059 69.7626 38.9559 67.7657 44.7422L71.6989 44.7543C76.236 30.6102 90.7157 37.8285 91.3208 33.1605C90.3266 30.0914 74.6801 33.1605 79.0458 19.2945Z" fill="white"/>
<path d="M68.8797 42.3234C69.502 40.2492 69.2945 38.1742 68.2574 36.9293C67.2199 35.6844 65.7676 34.8551 63.9004 34.6473L27.8008 34.232C27.5934 34.232 27.3859 34.025 27.1785 34.025C26.9711 33.8172 26.9711 33.6098 27.1785 33.4023C27.3859 32.9875 27.5934 32.7797 28.0082 32.7797L64.3152 32.3648C68.6723 32.1578 73.2367 28.6305 74.8961 24.4813L76.9711 19.0871C76.9711 18.8793 77.1785 18.6719 76.9711 18.4645C74.6887 7.88359 65.1453 0 53.9418 0C43.5684 0 34.6473 6.63867 31.5352 15.975C29.4605 14.5227 26.9711 13.6926 24.0664 13.9008C19.0871 14.3152 15.1453 18.4645 14.5227 23.4437C14.3152 24.6887 14.5227 25.9336 14.7305 27.1781C6.63906 27.3855 0 34.0246 0 42.3234C0 43.1531 0 43.7758 0.207422 44.6055C0.207422 45.0207 0.622266 45.2281 0.830078 45.2281H67.4273C67.8422 45.2281 68.2574 45.0211 68.2574 44.6055L68.8797 42.3234Z" fill="#F4811F"/>
<path d="M80.2906 19.0872H79.2531C79.0457 19.0872 78.8383 19.2942 78.6309 19.502L77.1785 24.4813C76.5563 26.5555 76.7637 28.6309 77.8012 29.8754C78.8383 31.1204 80.2906 31.9497 82.1578 32.1579L89.8344 32.5727C90.0414 32.5727 90.2492 32.7797 90.4567 32.7797C90.6637 32.9875 90.6637 33.195 90.4567 33.4024C90.2492 33.8176 90.0418 34.025 89.6266 34.025L81.743 34.4399C77.386 34.6469 72.8219 38.1743 71.1621 42.3235L70.7469 44.1907C70.5395 44.3985 70.7469 44.8133 71.1621 44.8133H98.5481C98.9629 44.8133 99.1703 44.6059 99.1703 44.1911C99.5852 42.5309 100 40.6637 100 38.7965C100 28.0083 91.0789 19.0872 80.2906 19.0872Z" fill="#FAAD3F"/>
</svg>
