<svg width="89" height="100" viewBox="0 0 89 100" fill="none" xmlns="http://www.w3.org/2000/svg">
<path d="M88.1749 0L80.142 89.9895L44.0335 100L8.02445 90.0037L0 0H88.1749Z" fill="#264DE4"/>
<path d="M73.2649 84.2593L80.1296 7.35913H44.0875V92.3484L73.2649 84.2593Z" fill="#2965F1"/>
<path d="M18.3959 40.7402L19.3852 51.7787H44.0874V40.7402H18.3959Z" fill="#EBEBEB"/>
<path d="M44.0875 18.3977H44.0493H16.408L17.4114 29.4364H44.0875V18.3977Z" fill="#EBEBEB"/>
<path d="M44.0874 80.8931V69.4083L44.039 69.4212L31.7453 66.1016L30.9594 57.2979H24.9856H19.8784L21.4249 74.63L44.0366 80.9072L44.0874 80.8931Z" fill="#EBEBEB"/>
<path d="M57.6421 51.7785L56.3608 66.0947L44.0493 69.4177V80.9019L66.679 74.6301L66.845 72.7652L69.439 43.7042L69.7083 40.7401L71.7011 18.3977H44.0493V29.4364H59.6038L58.5994 40.7401H44.0493V51.7785H57.6421Z" fill="white"/>
</svg>
