<svg width="100" height="100" viewBox="0 0 100 100" fill="none" xmlns="http://www.w3.org/2000/svg">
<path d="M33.3333 100C42.5333 100 50 92.5334 50 83.3334V66.6667H33.3333C24.1333 66.6667 16.6666 74.1334 16.6666 83.3334C16.6666 92.5334 24.1333 100 33.3333 100Z" fill="#0ACF83"/>
<path d="M16.6666 49.9999C16.6666 40.7999 24.1333 33.3333 33.3333 33.3333H50V66.6665H33.3333C24.1333 66.6665 16.6666 59.1999 16.6666 49.9999Z" fill="#A259FF"/>
<path d="M16.6666 16.6667C16.6666 7.46666 24.1333 0 33.3333 0H50V33.3333H33.3333C24.1333 33.3333 16.6666 25.8667 16.6666 16.6667Z" fill="#F24E1E"/>
<path d="M50 0H66.6667C75.8667 0 83.3334 7.46666 83.3334 16.6667C83.3334 25.8667 75.8667 33.3333 66.6667 33.3333H50V0Z" fill="#FF7262"/>
<path d="M83.3334 49.9999C83.3334 59.1999 75.8667 66.6665 66.6667 66.6665C57.4667 66.6665 50 59.1999 50 49.9999C50 40.7999 57.4667 33.3333 66.6667 33.3333C75.8667 33.3333 83.3334 40.7999 83.3334 49.9999Z" fill="#1ABCFE"/>
</svg>
