<svg width="100" height="98" viewBox="0 0 100 98" fill="none" xmlns="http://www.w3.org/2000/svg">
<path d="M50.0002 0C22.3894 0 0 22.3855 0 50.0002C0 72.092 14.3266 90.834 34.1933 97.4456C36.692 97.9083 37.6096 96.3609 37.6096 95.0402C37.6096 93.848 37.563 89.909 37.5418 85.7311C23.6313 88.7557 20.6961 79.8317 20.6961 79.8317C18.4217 74.0523 15.1446 72.5159 15.1446 72.5159C10.6083 69.4124 15.4865 69.476 15.4865 69.476C20.5075 69.8289 23.1513 74.6287 23.1513 74.6287C27.6108 82.2728 34.8482 80.0627 37.7014 78.7854C38.15 75.5534 39.4461 73.348 40.8758 72.0994C29.7703 70.8347 18.0954 66.5474 18.0954 47.3889C18.0954 41.9303 20.0487 37.4697 23.2474 33.9682C22.7282 32.7086 21.0169 27.6233 23.7317 20.7361C23.7317 20.7361 27.9304 19.3923 37.4853 25.8614C41.4734 24.7532 45.7509 24.198 50.0002 24.1791C54.2495 24.198 58.5301 24.7532 62.526 25.8614C72.0696 19.3923 76.2624 20.7361 76.2624 20.7361C78.9839 27.6233 77.2718 32.7086 76.7526 33.9682C79.9584 37.4697 81.8983 41.9299 81.8983 47.3889C81.8983 66.5929 70.2014 70.8218 59.0677 72.0594C60.861 73.6111 62.459 76.6541 62.459 81.3187C62.459 88.0086 62.4009 93.3932 62.4009 95.0402C62.4009 96.3707 63.3009 97.9299 65.8357 97.4389C85.6915 90.8199 100 72.0845 100 50.0002C100 22.3855 77.6137 0 50.0002 0Z" fill="white"/>
</svg>
