<svg width="100" height="100" viewBox="0 0 100 100" fill="none" xmlns="http://www.w3.org/2000/svg">
<path d="M100 0H0V100H100V0Z" fill="#F7DF1E"/>
<path d="M67.1746 78.1254C69.1889 81.4143 71.8095 83.8318 76.4444 83.8318C80.3381 83.8318 82.8254 81.8857 82.8254 79.1969C82.8254 75.9746 80.2698 74.8334 75.9841 72.9588L73.6349 71.9508C66.8539 69.0619 62.3492 65.4429 62.3492 57.7921C62.3492 50.7445 67.719 45.3794 76.1111 45.3794C82.0857 45.3794 86.3809 47.4588 89.4762 52.9032L82.1587 57.6016C80.5476 54.7127 78.8095 53.5746 76.1111 53.5746C73.3587 53.5746 71.6143 55.3207 71.6143 57.6016C71.6143 60.4207 73.3603 61.5619 77.392 63.308L79.7413 64.3143C87.7254 67.7381 92.2333 71.2286 92.2333 79.0762C92.2333 87.5365 85.5873 92.1715 76.6619 92.1715C67.9349 92.1715 62.2968 88.0127 59.5381 82.5619L67.1746 78.1254ZM33.9793 78.9397C35.4555 81.5588 36.7984 83.773 40.027 83.773C43.1143 83.773 45.0619 82.5651 45.0619 77.8683V45.9159H54.4587V77.9953C54.4587 87.7254 48.7539 92.154 40.427 92.154C32.9032 92.154 28.546 88.2603 26.3301 83.5707L33.9793 78.9397Z" fill="black"/>
</svg>
