<svg width="99" height="40" viewBox="0 0 99 57" fill="none" xmlns="http://www.w3.org/2000/svg">
<path d="M11.3109 37.1363L16.5893 21.1125H22.2071L14.478 42H8.06845L0.37703 21.1125H6.03248L11.3109 37.1363ZM60.1166 42.3393C58.4074 42.3393 56.8741 42.0377 55.5168 41.4345C54.1595 40.8061 53.0787 39.964 52.2744 38.9084C51.4952 37.8527 51.0679 36.6839 50.9925 35.402H56.3086C56.4091 36.2063 56.7987 36.8724 57.4774 37.4002C58.1812 37.9281 59.0483 38.192 60.0789 38.192C61.0843 38.192 61.8635 37.9909 62.4165 37.5887C62.9946 37.1866 63.2836 36.6713 63.2836 36.0429C63.2836 35.3643 62.9317 34.8616 62.228 34.5348C61.5493 34.1829 60.4559 33.8059 58.9478 33.4037C57.3894 33.0267 56.1075 32.6371 55.1021 32.2349C54.1218 31.8328 53.2672 31.2169 52.5383 30.3875C51.8345 29.558 51.4826 28.4395 51.4826 27.0319C51.4826 25.8757 51.8094 24.82 52.4629 23.8648C53.1415 22.9097 54.0967 22.1556 55.3283 21.6027C56.5851 21.0497 58.0555 20.7732 59.7396 20.7732C62.228 20.7732 64.2136 21.4016 65.6966 22.6583C67.1796 23.89 67.9965 25.5615 68.1473 27.6729H63.0951C63.0197 26.8434 62.6678 26.1899 62.0394 25.7123C61.4362 25.2096 60.6193 24.9582 59.5887 24.9582C58.6336 24.9582 57.8921 25.1342 57.3643 25.4861C56.8616 25.838 56.6102 26.3281 56.6102 26.9565C56.6102 27.6603 56.9621 28.2007 57.6659 28.5777C58.3697 28.9296 59.4631 29.2941 60.946 29.6711C62.4542 30.0481 63.6984 30.4377 64.6786 30.8399C65.6589 31.2421 66.501 31.8705 67.2048 32.7251C67.9337 33.5545 68.3107 34.6605 68.3358 36.0429C68.3358 37.2494 67.9965 38.3302 67.3179 39.2854C66.6643 40.2405 65.7092 40.9946 64.4524 41.5476C63.2208 42.0754 61.7755 42.3393 60.1166 42.3393ZM95.7159 21.1125V42H90.3998V39.3608C89.7211 40.2657 88.8288 40.982 87.7229 41.5099C86.642 42.0126 85.4607 42.2639 84.1788 42.2639C82.545 42.2639 81.0997 41.9246 79.8429 41.2459C78.5862 40.5421 77.5933 39.5242 76.8644 38.192C76.1606 36.8347 75.8087 35.226 75.8087 33.366V21.1125H81.0871V32.6119C81.0871 34.2709 81.5019 35.5528 82.3313 36.4577C83.1608 37.3374 84.2919 37.7773 85.7246 37.7773C87.1824 37.7773 88.3261 37.3374 89.1556 36.4577C89.985 35.5528 90.3998 34.2709 90.3998 32.6119V21.1125H95.7159Z" fill="#E9E9E9"/>
<path d="M46.1808 41.6085L34.7178 21L31.2789 26.8326L39.6851 41.6085H46.1808Z" fill="#E9E9E9" stroke="#E9E9E9" stroke-width="0.502645"/>
<path d="M34.3539 33.1226H27.92L23 41.6085H29.4339L34.3539 33.1226Z" fill="#E9E9E9" stroke="#E9E9E9" stroke-width="0.502645"/>
</svg>
