<svg width="100" height="88" viewBox="0 0 100 88" fill="none" xmlns="http://www.w3.org/2000/svg">
<path d="M62.8541 58.2803H55.9976L55.4249 57.7077V41.6576C55.4249 38.802 54.3028 36.5887 50.8591 36.5113C49.0869 36.4649 47.0593 36.5113 44.8925 36.5964L44.5675 36.9292V43.4142V57.7L43.9948 58.2726H37.1383L36.5656 57.7V30.2817L37.1383 29.709H52.5693C58.5668 29.709 63.4268 34.5689 63.4268 40.5664V57.7077L62.8541 58.2803Z" fill="white"/>
<path d="M27.0238 73.4716H26.0796L21.3668 68.7587V67.8146L28.5715 60.6099H33.563L34.2285 61.2754V66.2668L27.0238 73.4716Z" fill="#32E6E2"/>
<path d="M21.3668 20.1671V19.2229L26.0796 14.51H27.0238L34.2285 21.7148V26.7062L33.563 27.3718H28.5715L21.3668 20.1671Z" fill="#32E6E2"/>
<path d="M27.9987 48.0034H0.572651L-1.52588e-05 47.4307V40.5588L0.572651 39.9861H27.9987L28.5714 40.5588V47.4307L27.9987 48.0034Z" fill="#32E6E2"/>
<path d="M99.4274 48.0034H72.0011L71.4284 47.4307V40.5588L72.0011 39.9861H99.4274L100 40.5588V47.4307L99.4274 48.0034Z" fill="#32E6E2"/>
<path d="M46.0455 21.1423V0.572666L46.6181 0H53.4902L54.0629 0.572666V21.1423L53.4902 21.7149H46.6181L46.0455 21.1423Z" fill="#32E6E2"/>
<path d="M46.0455 87.4165V66.8471L46.6181 66.2744H53.4902L54.0629 66.8471V87.4165L53.4902 87.9891H46.6181L46.0455 87.4165Z" fill="#32E6E2"/>
</svg>
