<svg width="91" height="100" viewBox="0 0 91 100" fill="none" xmlns="http://www.w3.org/2000/svg">
<path d="M41.2785 1.06686C43.758 -0.352413 46.9876 -0.358823 49.465 1.06686C61.9286 8.10944 74.3961 15.141 86.8576 22.1878C89.2014 23.5081 90.7692 26.1166 90.7454 28.8173V71.1881C90.7628 74.0007 89.0401 76.6715 86.5673 77.9618C74.1447 84.9656 61.7285 91.9779 49.308 98.9816C46.7772 100.429 43.4827 100.317 41.031 98.7516C37.3067 96.5926 33.576 94.4443 29.8513 92.2874C29.0902 91.8336 28.2322 91.4725 27.6948 90.7346C28.1699 90.0942 29.0193 90.0144 29.7096 89.7348C31.2642 89.2405 32.692 88.447 34.1202 87.677C34.4813 87.4298 34.9222 87.5245 35.2684 87.7457C38.4531 89.5717 41.6097 91.4508 44.8051 93.2593C45.4868 93.6529 46.177 93.1304 46.7597 92.8056C58.9501 85.9158 71.1555 79.052 83.3438 72.1601C83.7954 71.9428 84.0451 71.4634 84.0084 70.9688C84.0169 56.9915 84.0105 43.0118 84.0127 29.0345C84.0643 28.4732 83.7395 27.9572 83.232 27.7274C70.8524 20.7557 58.4793 13.7733 46.1019 6.79986C45.8874 6.65243 45.6334 6.57333 45.3732 6.57295C45.1129 6.57257 44.8587 6.65093 44.6438 6.79773C32.2664 13.7733 19.8954 20.7622 7.51799 27.7335C7.01226 27.9636 6.67284 28.4711 6.73303 29.0345C6.73517 43.0118 6.73303 56.9915 6.73303 70.9709C6.71157 71.2123 6.76458 71.4544 6.88493 71.6647C7.00528 71.8751 7.18719 72.0435 7.40616 72.1473C10.7091 74.0203 14.0164 75.8801 17.3215 77.7467C19.1834 78.7489 21.4696 79.3444 23.521 78.5765C25.3314 77.9273 26.6003 76.0799 26.5658 74.1577C26.5829 60.2621 26.5573 46.3642 26.5786 32.4707C26.5334 31.8538 27.1185 31.3442 27.7183 31.4022C29.3053 31.3915 30.8945 31.3809 32.4815 31.4065C33.144 31.3916 33.5998 32.0558 33.5179 32.6773C33.5115 46.6609 33.535 60.6449 33.5072 74.6286C33.5115 78.3554 31.9804 82.4105 28.5332 84.234C24.2864 86.434 19.0374 85.9674 14.8419 83.8579C11.2099 82.0451 7.7438 79.9057 4.17621 77.9636C1.69702 76.6804 -0.017145 73.9989 0.000306541 71.1885V28.8173C-0.0256927 26.0606 1.60442 23.4048 4.02128 22.1038C16.4418 15.0943 28.8601 8.07952 41.2785 1.06686Z" fill="#8CC84B"/>
<path d="M52.1141 30.4174C57.5312 30.0687 63.3304 30.2108 68.2051 32.8795C71.9793 34.9245 74.0717 39.2165 74.1383 43.4095C74.0329 43.9751 73.4416 44.2871 72.9017 44.2483C71.33 44.2461 69.7579 44.2696 68.1862 44.2376C67.5195 44.2632 67.132 43.6485 67.0483 43.0591C66.5967 41.0529 65.5026 39.0659 63.6143 38.0982C60.7156 36.6469 57.3545 36.7199 54.1937 36.7502C51.8862 36.8727 49.4048 37.0725 47.4499 38.4294C45.9491 39.4573 45.4932 41.5322 46.0289 43.2033C46.5339 44.4032 47.919 44.7903 49.0522 45.1472C55.5805 46.8546 62.4985 46.6847 68.9021 48.9317C71.5533 49.8477 74.1468 51.6285 75.0543 54.4043C76.2414 58.1247 75.721 62.5717 73.0741 65.5584C70.9276 68.0162 67.8012 69.3539 64.6831 70.0804C60.535 71.0054 56.2302 71.0289 52.0176 70.6182C48.0564 70.1666 43.9343 69.126 40.8764 66.427C38.2615 64.1565 36.9843 60.6189 37.1111 57.2044C37.1414 56.6278 37.7155 56.2257 38.2679 56.2731C39.8507 56.2603 41.4334 56.256 43.0162 56.2752C43.6483 56.23 44.117 56.7763 44.1494 57.3722C44.4415 59.2837 45.1598 61.2899 46.8266 62.4231C50.0434 64.4984 54.0797 64.3563 57.7631 64.4144C60.8146 64.2791 64.2401 64.2381 66.7303 62.2212C68.0441 61.0708 68.4334 59.1462 68.0783 57.4904C67.6937 56.0925 66.2313 55.4411 64.9755 55.0151C58.5309 52.9765 51.5357 53.7163 45.1534 51.4109C42.5624 50.4952 40.0569 48.7639 39.0614 46.1021C37.6724 42.3347 38.3089 37.6747 41.2333 34.7888C44.0846 31.9182 48.2007 30.8127 52.1141 30.4171V30.4174Z" fill="#8CC84B"/>
</svg>
