<svg width="800" height="400" viewBox="0 0 800 400" xmlns="http://www.w3.org/2000/svg"><defs><pattern id="satori_pattern_id_0" x="0" y="0" width="1" height="1" patternUnits="objectBoundingBox"><linearGradient id="satori_biid_0" x1="0" y1="0" x2="0" y2="1"><stop offset="0%" stop-color="#dbf4ff"/><stop offset="100%" stop-color="#fff1f1"/></linearGradient><rect x="0" y="0" width="800" height="400" fill="url(#satori_biid_0)"/></pattern></defs><mask id="satori_om-id"><rect x="0" y="0" width="800" height="400" fill="#fff"/></mask><rect x="0" y="0" width="800" height="400" fill="url(#satori_pattern_id_0)"/><clipPath id="satori_bct-id-0"><path d="M323.3 147.2L323.3 147.2L307.8 147.2L307.8 103.5L323.4 103.5Q330.0 103.5 334.7 106.1Q339.5 108.7 342.0 113.6Q344.6 118.5 344.6 125.3L344.6 125.3Q344.6 132.1 342.0 137.0Q339.5 141.9 334.7 144.5Q329.9 147.2 323.3 147.2ZM317.0 111.4L317.0 139.3L322.9 139.3Q327.0 139.3 329.8 137.8Q332.6 136.3 334.0 133.3Q335.4 130.2 335.4 125.3L335.4 125.3Q335.4 120.5 334.0 117.4Q332.6 114.3 329.8 112.9Q327.0 111.4 322.9 111.4L322.9 111.4L317.0 111.4ZM364.2 147.8L364.2 147.8Q359.1 147.8 355.5 145.7Q351.9 143.7 349.9 139.9Q347.9 136.1 347.9 130.9L347.9 130.9Q347.9 125.9 349.9 122.1Q351.9 118.3 355.4 116.1Q359.0 114.0 363.8 114.0L363.8 114.0Q367.0 114.0 369.9 115.0Q372.7 116.1 374.8 118.1Q376.9 120.2 378.0 123.3Q379.2 126.5 379.2 130.6L379.2 130.6L379.2 133.1L351.6 133.1L351.6 127.5L370.7 127.5Q370.7 125.5 369.8 124.0Q368.9 122.5 367.4 121.6Q365.9 120.8 364.0 120.8L364.0 120.8Q361.9 120.8 360.3 121.7Q358.7 122.7 357.8 124.3Q356.9 125.9 356.9 127.8L356.9 127.8L356.9 133.1Q356.9 135.6 357.8 137.3Q358.7 139.1 360.4 140.1Q362.0 141.0 364.3 141.0L364.3 141.0Q365.8 141.0 367.1 140.6Q368.3 140.2 369.2 139.3Q370.1 138.5 370.6 137.2L370.6 137.2L379.0 137.8Q378.4 140.8 376.4 143.1Q374.4 145.3 371.3 146.6Q368.2 147.8 364.2 147.8ZM410.3 123.8L410.3 123.8L402.0 124.3Q401.8 123.2 401.1 122.3Q400.4 121.5 399.3 121.0Q398.1 120.4 396.6 120.4L396.6 120.4Q394.5 120.4 393.0 121.3Q391.6 122.2 391.6 123.7L391.6 123.7Q391.6 124.9 392.5 125.7Q393.4 126.5 395.7 127.0L395.7 127.0L401.6 128.2Q406.4 129.1 408.8 131.3Q411.1 133.5 411.1 137.0L411.1 137.0Q411.1 140.2 409.2 142.7Q407.3 145.1 404.1 146.4Q400.8 147.8 396.5 147.8L396.5 147.8Q390.0 147.8 386.2 145.1Q382.3 142.4 381.7 137.7L381.7 137.7L390.6 137.2Q391.0 139.2 392.6 140.2Q394.1 141.3 396.5 141.3L396.5 141.3Q398.9 141.3 400.4 140.3Q401.8 139.4 401.9 137.9L401.9 137.9Q401.8 136.7 400.8 135.9Q399.8 135.1 397.7 134.7L397.7 134.7L392.0 133.5Q387.2 132.6 384.9 130.2Q382.5 127.9 382.5 124.2L382.5 124.2Q382.5 121.0 384.3 118.8Q386.0 116.5 389.1 115.2Q392.2 114.0 396.4 114.0L396.4 114.0Q402.6 114.0 406.2 116.6Q409.8 119.2 410.3 123.8ZM423.9 147.2L414.8 147.2L414.8 114.4L423.9 114.4L423.9 147.2ZM419.4 110.2L419.4 110.2Q417.4 110.2 415.9 108.9Q414.5 107.5 414.5 105.6L414.5 105.6Q414.5 103.7 415.9 102.4Q417.4 101.0 419.4 101.0L419.4 101.0Q421.4 101.0 422.8 102.4Q424.3 103.7 424.3 105.6L424.3 105.6Q424.3 107.5 422.8 108.9Q421.4 110.2 419.4 110.2ZM443.9 160.1L443.9 160.1Q439.5 160.1 436.3 158.9Q433.2 157.7 431.3 155.6Q429.5 153.6 428.9 151.0L428.9 151.0L437.3 149.9Q437.7 150.8 438.5 151.7Q439.4 152.6 440.7 153.1Q442.1 153.6 444.1 153.6L444.1 153.6Q447.1 153.6 449.0 152.2Q450.9 150.7 450.9 147.4L450.9 147.4L450.9 141.4L450.5 141.4Q449.9 142.7 448.7 143.9Q447.6 145.2 445.7 145.9Q443.8 146.7 441.2 146.7L441.2 146.7Q437.5 146.7 434.5 145.0Q431.5 143.3 429.7 139.7Q427.9 136.2 427.9 130.7L427.9 130.7Q427.9 125.2 429.7 121.4Q431.6 117.7 434.6 115.9Q437.6 114.0 441.2 114.0L441.2 114.0Q443.9 114.0 445.8 114.9Q447.6 115.9 448.8 117.2Q449.9 118.6 450.5 119.9L450.5 119.9L450.9 119.9L450.9 114.4L459.9 114.4L459.9 147.5Q459.9 151.7 457.8 154.5Q455.8 157.3 452.2 158.7Q448.6 160.1 443.9 160.1ZM444.1 139.9L444.1 139.9Q446.3 139.9 447.8 138.8Q449.3 137.7 450.1 135.6Q451.0 133.6 451.0 130.7L451.0 130.7Q451.0 127.8 450.2 125.7Q449.3 123.6 447.8 122.4Q446.3 121.2 444.1 121.2L444.1 121.2Q441.8 121.2 440.3 122.4Q438.8 123.6 438.0 125.8Q437.2 127.9 437.2 130.7L437.2 130.7Q437.2 133.5 438.0 135.6Q438.8 137.6 440.3 138.8Q441.8 139.9 444.1 139.9ZM474.2 128.2L474.2 128.2L474.2 147.2L465.1 147.2L465.1 114.4L473.8 114.4L473.8 120.2L474.2 120.2Q475.3 117.4 477.8 115.7Q480.4 114.0 484.0 114.0L484.0 114.0Q487.4 114.0 490.0 115.5Q492.5 117.0 493.9 119.7Q495.3 122.5 495.3 126.3L495.3 126.3L495.3 147.2L486.2 147.2L486.2 127.9Q486.3 124.9 484.7 123.2Q483.1 121.5 480.4 121.5L480.4 121.5Q478.6 121.5 477.2 122.3Q475.8 123.1 475.0 124.6Q474.2 126.1 474.2 128.2Z "/></clipPath><defs><pattern id="satori_pattern_id-0_0" x="0" y="0" width="1" height="1" patternUnits="objectBoundingBox"><linearGradient id="satori_biid-0_0" x1="0" y1="0" x2="1" y2="0"><stop offset="0%" stop-color="rgb(0,124,240)"/><stop offset="100%" stop-color="rgb(0,223,216)"/></linearGradient><rect x="0" y="0" width="193" height="73" fill="url(#satori_biid-0_0)"/></pattern></defs><mask id="satori_om-id-0"><rect x="304" y="91" width="193" height="73" fill="#fff"/></mask><rect x="304" y="91" width="193" height="73" fill="url(#satori_pattern_id-0_0)" clip-path="url(#satori_bct-id-0)"/><clipPath id="satori_bct-id-1"><path d="M305.3 220.2L305.3 220.2L289.8 220.2L289.8 176.5L305.4 176.5Q312.0 176.5 316.7 179.1Q321.5 181.7 324.0 186.6Q326.6 191.5 326.6 198.3L326.6 198.3Q326.6 205.1 324.0 210.0Q321.5 214.9 316.7 217.5Q311.9 220.2 305.3 220.2ZM299.0 184.4L299.0 212.3L304.9 212.3Q309.0 212.3 311.8 210.8Q314.6 209.3 316.0 206.3Q317.4 203.2 317.4 198.3L317.4 198.3Q317.4 193.5 316.0 190.4Q314.6 187.3 311.8 185.9Q309.0 184.4 304.9 184.4L304.9 184.4L299.0 184.4ZM346.2 220.8L346.2 220.8Q341.1 220.8 337.5 218.7Q333.9 216.7 331.9 212.9Q329.9 209.1 329.9 203.9L329.9 203.9Q329.9 198.9 331.9 195.1Q333.9 191.3 337.4 189.1Q341.0 187.0 345.8 187.0L345.8 187.0Q349.0 187.0 351.9 188.0Q354.7 189.1 356.8 191.1Q358.9 193.2 360.0 196.3Q361.2 199.5 361.2 203.6L361.2 203.6L361.2 206.1L333.6 206.1L333.6 200.5L352.7 200.5Q352.7 198.5 351.8 197.0Q350.9 195.5 349.4 194.6Q347.9 193.8 346.0 193.8L346.0 193.8Q343.9 193.8 342.3 194.7Q340.7 195.7 339.8 197.3Q338.9 198.9 338.9 200.8L338.9 200.8L338.9 206.1Q338.9 208.6 339.8 210.3Q340.7 212.1 342.4 213.1Q344.0 214.0 346.3 214.0L346.3 214.0Q347.8 214.0 349.1 213.6Q350.3 213.2 351.2 212.3Q352.1 211.5 352.6 210.2L352.6 210.2L361.0 210.8Q360.4 213.8 358.4 216.1Q356.4 218.3 353.3 219.6Q350.2 220.8 346.2 220.8ZM385.1 187.4L394.7 187.4L383.3 220.2L373.0 220.2L361.6 187.4L371.2 187.4L378.0 210.8L378.3 210.8L385.1 187.4ZM411.2 220.8L411.2 220.8Q406.1 220.8 402.5 218.7Q398.9 216.7 396.9 212.9Q395.0 209.1 395.0 203.9L395.0 203.9Q395.0 198.9 396.9 195.1Q398.9 191.3 402.4 189.1Q406.0 187.0 410.8 187.0L410.8 187.0Q414.1 187.0 416.9 188.0Q419.7 189.1 421.8 191.1Q423.9 193.2 425.0 196.3Q426.2 199.5 426.2 203.6L426.2 203.6L426.2 206.1L398.6 206.1L398.6 200.5L417.7 200.5Q417.7 198.5 416.8 197.0Q416.0 195.5 414.5 194.6Q413.0 193.8 411.0 193.8L411.0 193.8Q408.9 193.8 407.3 194.7Q405.7 195.7 404.8 197.3Q403.9 198.9 403.9 200.8L403.9 200.8L403.9 206.1Q403.9 208.6 404.8 210.3Q405.7 212.1 407.4 213.1Q409.1 214.0 411.3 214.0L411.3 214.0Q412.8 214.0 414.1 213.6Q415.4 213.2 416.3 212.3Q417.2 211.5 417.6 210.2L417.6 210.2L426.0 210.8Q425.4 213.8 423.4 216.1Q421.4 218.3 418.3 219.6Q415.2 220.8 411.2 220.8ZM430.1 176.5L439.2 176.5L439.2 220.2L430.1 220.2L430.1 176.5ZM459.2 220.8L459.2 220.8Q454.3 220.8 450.7 218.7Q447.1 216.6 445.1 212.8Q443.1 209.0 443.1 203.9L443.1 203.9Q443.1 198.9 445.1 195.1Q447.1 191.2 450.7 189.1Q454.3 187.0 459.2 187.0L459.2 187.0Q464.2 187.0 467.8 189.1Q471.4 191.2 473.4 195.1Q475.3 198.9 475.3 203.9L475.3 203.9Q475.3 209.0 473.4 212.8Q471.4 216.6 467.8 218.7Q464.2 220.8 459.2 220.8ZM459.3 213.8L459.3 213.8Q461.5 213.8 463.1 212.5Q464.6 211.2 465.3 209.0Q466.1 206.7 466.1 203.9L466.1 203.9Q466.1 201.0 465.3 198.8Q464.6 196.5 463.1 195.2Q461.5 193.9 459.3 193.9L459.3 193.9Q457.0 193.9 455.5 195.2Q453.9 196.5 453.1 198.8Q452.4 201.0 452.4 203.9L452.4 203.9Q452.4 206.7 453.1 209.0Q453.9 211.2 455.5 212.5Q457.0 213.8 459.3 213.8ZM488.3 232.4L479.3 232.4L479.3 187.4L488.2 187.4L488.2 192.9L488.6 192.9Q489.2 191.6 490.4 190.2Q491.5 188.9 493.3 187.9Q495.2 187.0 497.9 187.0L497.9 187.0Q501.5 187.0 504.5 188.9Q507.6 190.7 509.4 194.5Q511.2 198.2 511.2 203.8L511.2 203.8Q511.2 209.3 509.4 213.1Q507.7 216.8 504.7 218.8Q501.6 220.7 497.9 220.7L497.9 220.7Q495.3 220.7 493.4 219.8Q491.6 218.9 490.4 217.6Q489.2 216.3 488.6 214.9L488.6 214.9L488.3 214.9L488.3 232.4ZM488.2 203.8L488.2 203.8Q488.2 206.7 489.0 208.9Q489.8 211.1 491.3 212.3Q492.8 213.5 495.0 213.5L495.0 213.5Q497.3 213.5 498.8 212.2Q500.3 211.0 501.1 208.8Q501.9 206.7 501.9 203.8L501.9 203.8Q501.9 201.0 501.1 198.8Q500.3 196.7 498.8 195.4Q497.3 194.2 495.0 194.2L495.0 194.2Q492.8 194.2 491.3 195.4Q489.8 196.6 489.0 198.7Q488.2 200.9 488.2 203.8Z "/></clipPath><defs><pattern id="satori_pattern_id-1_0" x="0" y="0" width="1" height="1" patternUnits="objectBoundingBox"><linearGradient id="satori_biid-1_0" x1="0" y1="0" x2="1" y2="0"><stop offset="0%" stop-color="rgb(121,40,202)"/><stop offset="100%" stop-color="rgb(255,0,128)"/></linearGradient><rect x="0" y="0" width="228" height="72" fill="url(#satori_biid-1_0)"/></pattern></defs><mask id="satori_om-id-1"><rect x="286" y="164" width="228" height="72" fill="#fff"/></mask><rect x="286" y="164" width="228" height="72" fill="url(#satori_pattern_id-1_0)" clip-path="url(#satori_bct-id-1)"/><clipPath id="satori_bct-id-2"><path d="M322.3 292.2L322.3 292.2L306.8 292.2L306.8 248.5L322.4 248.5Q329.0 248.5 333.7 251.1Q338.5 253.7 341.0 258.6Q343.6 263.5 343.6 270.3L343.6 270.3Q343.6 277.1 341.0 282.0Q338.5 286.9 333.7 289.5Q328.9 292.2 322.3 292.2ZM316.0 256.4L316.0 284.3L321.9 284.3Q326.0 284.3 328.8 282.8Q331.6 281.3 333.0 278.3Q334.4 275.2 334.4 270.3L334.4 270.3Q334.4 265.5 333.0 262.4Q331.6 259.3 328.8 257.9Q326.0 256.4 321.9 256.4L321.9 256.4L316.0 256.4ZM363.2 292.8L363.2 292.8Q358.1 292.8 354.5 290.7Q350.9 288.7 348.9 284.9Q346.9 281.1 346.9 275.9L346.9 275.9Q346.9 270.9 348.9 267.1Q350.9 263.3 354.4 261.1Q358.0 259.0 362.8 259.0L362.8 259.0Q366.0 259.0 368.9 260.0Q371.7 261.1 373.8 263.1Q375.9 265.2 377.0 268.3Q378.2 271.5 378.2 275.6L378.2 275.6L378.2 278.1L350.6 278.1L350.6 272.5L369.7 272.5Q369.7 270.5 368.8 269.0Q367.9 267.5 366.4 266.6Q364.9 265.8 363.0 265.8L363.0 265.8Q360.9 265.8 359.3 266.7Q357.7 267.7 356.8 269.3Q355.9 270.9 355.9 272.8L355.9 272.8L355.9 278.1Q355.9 280.6 356.8 282.3Q357.7 284.1 359.4 285.1Q361.0 286.0 363.3 286.0L363.3 286.0Q364.8 286.0 366.1 285.6Q367.3 285.2 368.2 284.3Q369.1 283.5 369.6 282.2L369.6 282.2L378.0 282.8Q377.4 285.8 375.4 288.1Q373.4 290.3 370.3 291.6Q367.2 292.8 363.2 292.8ZM391.2 304.4L382.1 304.4L382.1 259.4L391.1 259.4L391.1 264.9L391.5 264.9Q392.1 263.6 393.2 262.2Q394.3 260.9 396.2 259.9Q398.0 259.0 400.8 259.0L400.8 259.0Q404.4 259.0 407.4 260.9Q410.4 262.7 412.2 266.5Q414.0 270.2 414.0 275.8L414.0 275.8Q414.0 281.3 412.3 285.1Q410.5 288.8 407.5 290.8Q404.5 292.7 400.8 292.7L400.8 292.7Q398.1 292.7 396.3 291.8Q394.4 290.9 393.3 289.6Q392.1 288.3 391.5 286.9L391.5 286.9L391.2 286.9L391.2 304.4ZM391.0 275.8L391.0 275.8Q391.0 278.7 391.8 280.9Q392.6 283.1 394.2 284.3Q395.7 285.5 397.9 285.5L397.9 285.5Q400.1 285.5 401.6 284.2Q403.2 283.0 404.0 280.8Q404.8 278.7 404.8 275.8L404.8 275.8Q404.8 273.0 404.0 270.8Q403.2 268.7 401.7 267.4Q400.1 266.2 397.9 266.2L397.9 266.2Q395.7 266.2 394.1 267.4Q392.6 268.6 391.8 270.7Q391.0 272.9 391.0 275.8ZM418.1 248.5L427.1 248.5L427.1 292.2L418.1 292.2L418.1 248.5ZM447.2 292.8L447.2 292.8Q442.2 292.8 438.6 290.7Q435.0 288.6 433.0 284.8Q431.1 281.0 431.1 275.9L431.1 275.9Q431.1 270.9 433.0 267.1Q435.0 263.2 438.6 261.1Q442.2 259.0 447.2 259.0L447.2 259.0Q452.1 259.0 455.7 261.1Q459.4 263.2 461.3 267.1Q463.3 270.9 463.3 275.9L463.3 275.9Q463.3 281.0 461.3 284.8Q459.4 288.6 455.7 290.7Q452.1 292.8 447.2 292.8ZM447.2 285.8L447.2 285.8Q449.5 285.8 451.0 284.5Q452.5 283.2 453.3 281.0Q454.1 278.7 454.1 275.9L454.1 275.9Q454.1 273.0 453.3 270.8Q452.5 268.5 451.0 267.2Q449.5 265.9 447.2 265.9L447.2 265.9Q444.9 265.9 443.4 267.2Q441.8 268.5 441.1 270.8Q440.3 273.0 440.3 275.9L440.3 275.9Q440.3 278.7 441.1 281.0Q441.8 283.2 443.4 284.5Q444.9 285.8 447.2 285.8ZM471.7 304.4L471.7 304.4Q470.0 304.4 468.5 304.2Q467.0 303.9 466.0 303.5L466.0 303.5L468.1 296.7Q469.7 297.2 470.9 297.3Q472.2 297.3 473.2 296.7Q474.1 296.0 474.7 294.5L474.7 294.5L475.3 293.1L463.5 259.4L473.1 259.4L479.8 283.5L480.2 283.5L487.0 259.4L496.6 259.4L483.9 295.7Q483.0 298.3 481.4 300.3Q479.9 302.3 477.5 303.4Q475.1 304.4 471.7 304.4Z "/></clipPath><defs><pattern id="satori_pattern_id-2_0" x="0" y="0" width="1" height="1" patternUnits="objectBoundingBox"><linearGradient id="satori_biid-2_0" x1="0" y1="0" x2="1" y2="0"><stop offset="0%" stop-color="rgb(255,77,77)"/><stop offset="100%" stop-color="rgb(249,203,40)"/></linearGradient><rect x="0" y="0" width="194" height="73" fill="url(#satori_biid-2_0)"/></pattern></defs><mask id="satori_om-id-2"><rect x="303" y="236" width="194" height="73" fill="#fff"/></mask><rect x="303" y="236" width="194" height="73" fill="url(#satori_pattern_id-2_0)" clip-path="url(#satori_bct-id-2)"/></svg>