<svg width="100" height="99" viewBox="0 0 100 99" fill="none" xmlns="http://www.w3.org/2000/svg">
<path d="M0.951416 34.4984C0.951416 34.4984 -1.48421 32.7427 1.43854 30.3984L8.24814 24.3093C8.24814 24.3093 10.1966 22.2593 12.2568 24.0455L75.0959 71.6214V94.4351C75.0959 94.4351 75.0655 98.0175 70.4682 97.6217L0.951416 34.4984Z" fill="#2489CA"/>
<path d="M17.1483 49.2036L0.951379 63.929C0.951379 63.929 -0.712967 65.1671 0.951379 67.3795L8.47138 74.2195C8.47138 74.2195 10.2575 76.1376 12.8961 73.9556L30.0673 60.9352L17.1483 49.2036Z" fill="#1070B3"/>
<path d="M45.5844 49.3253L75.2889 26.6435L75.0961 3.95149C75.0961 3.95149 73.8275 -1.00096 69.5956 1.57675L30.0674 37.5531L45.5844 49.3253Z" fill="#0877B9"/>
<path d="M70.4683 97.6524C72.1936 99.4182 74.2842 98.8397 74.2842 98.8397L97.4327 87.4329C100.396 85.4133 99.98 82.9067 99.98 82.9067V14.7902C99.98 11.7964 96.9152 10.7613 96.9152 10.7613L76.8517 1.08978C72.4676 -1.61985 69.5956 1.57691 69.5956 1.57691C69.5956 1.57691 73.2896 -1.08199 75.096 3.95165V94.0192C75.096 94.6383 74.9641 95.2472 74.7002 95.7952C74.1725 96.8608 73.0258 97.8553 70.2755 97.4392L70.4683 97.6524Z" fill="#3C99D4"/>
</svg>
